<svg xmlns="http://www.w3.org/2000/svg">
  <symbol id="arrow-for-link" viewBox="0 0 14 12" fill="none">
    <path d="M13.5303 6.53033C13.8232 6.23744 13.8232 5.76256 13.5303 5.46967L8.75736 0.696699C8.46447 0.403806 7.98959 0.403806 7.6967 0.696699C7.40381 0.989593 7.40381 1.46447 7.6967 1.75736L11.9393 6L7.6967 10.2426C7.40381 10.5355 7.40381 11.0104 7.6967 11.3033C7.98959 11.5962 8.46447 11.5962 8.75736 11.3033L13.5303 6.53033ZM0 6.75H13V5.25H0V6.75Z" fill="currentColor"/>
  </symbol>
  <symbol id="arrow-back" viewBox="0 0 27 16" fill="none">
    <path d="M0.292893 7.29289C-0.0976314 7.68341 -0.0976315 8.31658 0.292892 8.7071L6.65685 15.0711C7.04738 15.4616 7.68054 15.4616 8.07107 15.0711C8.46159 14.6805 8.46159 14.0474 8.07107 13.6569L2.41421 8L8.07107 2.34314C8.46159 1.95262 8.46159 1.31945 8.07107 0.928929C7.68055 0.538404 7.04738 0.538404 6.65686 0.928929L0.292893 7.29289ZM27 7L1 7L1 9L27 9L27 7Z" fill="currentColor"/>
  </symbol>
  <symbol id="arrow-forward" viewBox="0 0 27 16" fill="none" >
    <path d="M26.7071 8.70711C27.0976 8.31658 27.0976 7.68342 26.7071 7.2929L20.3431 0.928934C19.9526 0.53841 19.3195 0.538409 18.9289 0.928934C18.5384 1.31946 18.5384 1.95262 18.9289 2.34315L24.5858 8L18.9289 13.6569C18.5384 14.0474 18.5384 14.6805 18.9289 15.0711C19.3195 15.4616 19.9526 15.4616 20.3431 15.0711L26.7071 8.70711ZM-8.74228e-08 9L26 9L26 7L8.74228e-08 7L-8.74228e-08 9Z" fill="currentColor"/>
  </symbol>
  <symbol id="burger-icon" viewBox="0 0 63 34" fill="none">
    <path d="M2 2H61" stroke="currentColor" stroke-width="3.072" stroke-linecap="round"/>
    <path d="M2 16.0002H61" stroke="currentColor" stroke-width="3.072" stroke-linecap="round"/>
    <path d="M2 32H61" stroke="currentColor" stroke-width="3.072" stroke-linecap="round"/>
  </symbol>
</svg>
