<svg width="54" height="72" viewBox="0 0 54 72" fill="none" xmlns="http://www.w3.org/2000/svg">
<path d="M16.4998 20.9999C15.9478 20.9999 15.4198 20.6969 15.1558 20.1719L6.15582 2.17188C5.78682 1.43088 6.08682 0.527877 6.82782 0.158877C7.57182 -0.213123 8.46882 0.0868773 8.84082 0.830877L17.8408 18.8309C18.2128 19.5719 17.9098 20.4719 17.1688 20.8439C16.9558 20.9489 16.7278 20.9999 16.4998 20.9999Z" fill="#505050"/>
<path d="M37.4999 20.9999C37.2749 20.9999 37.0469 20.9489 36.8309 20.8409C36.0899 20.4689 35.7899 19.5689 36.1589 18.8279L45.1589 0.827899C45.5309 0.0838996 46.4309 -0.2131 47.1719 0.1559C47.9129 0.5249 48.2129 1.4279 47.8439 2.1689L38.8439 20.1689C38.5769 20.6969 38.0489 20.9999 37.4999 20.9999Z" fill="#505050"/>
<path d="M49.5001 2.99997H4.50008C3.67208 2.99997 3.00008 2.32797 3.00008 1.49997C3.00008 0.671968 3.67208 -3.15707e-05 4.50008 -3.15707e-05H49.5001C50.3281 -3.15707e-05 51.0001 0.671968 51.0001 1.49997C51.0001 2.32797 50.3281 2.99997 49.5001 2.99997Z" fill="#505050"/>
<path d="M43.4999 30H10.4999C8.01893 30 5.99993 27.981 5.99993 25.5V22.5C5.99993 20.019 8.01893 18 10.4999 18H43.4999C45.9809 18 47.9999 20.019 47.9999 22.5V25.5C47.9999 27.981 45.9809 30 43.4999 30ZM10.4999 21C9.67193 21 8.99993 21.672 8.99993 22.5V25.5C8.99993 26.328 9.67193 27 10.4999 27H43.4999C44.3279 27 44.9999 26.328 44.9999 25.5V22.5C44.9999 21.672 44.3279 21 43.4999 21H10.4999Z" fill="#505050"/>
<path d="M43.5 72H10.5C4.71 72 0 67.29 0 61.5C0 60.072 0.282 58.686 0.837 57.384L12.099 27.963C12.396 27.189 13.269 26.808 14.037 27.099C14.811 27.396 15.198 28.263 14.901 29.037L3.618 58.512C3.201 59.49 3 60.48 3 61.5C3 65.634 6.366 69 10.5 69H43.5C47.634 69 51 65.634 51 61.5C51 60.48 50.799 59.49 50.403 58.563L39.099 29.037C38.802 28.263 39.189 27.396 39.963 27.099C40.734 26.805 41.601 27.186 41.901 27.963L53.184 57.438C53.718 58.689 54 60.072 54 61.5C54 67.29 49.29 72 43.5 72Z" fill="#505050"/>
<path d="M36.366 49.5C33.417 49.5 31.875 48.021 30.636 46.833C29.529 45.768 28.728 45 26.985 45C25.245 45 24.447 45.768 23.34 46.833C22.101 48.021 20.562 49.5 17.616 49.5C14.67 49.5 13.131 48.021 11.895 46.83C10.788 45.768 9.987 45 8.25 45C7.422 45 6.75 44.328 6.75 43.5C6.75 42.672 7.422 42 8.25 42C11.196 42 12.735 43.479 13.971 44.67C15.078 45.732 15.879 46.5 17.616 46.5C19.353 46.5 20.154 45.732 21.261 44.67C22.497 43.482 24.039 42 26.985 42C29.934 42 31.476 43.479 32.715 44.667C33.825 45.729 34.626 46.5 36.366 46.5C38.109 46.5 38.91 45.732 40.02 44.667C41.259 43.479 42.801 42 45.75 42C46.578 42 47.25 42.672 47.25 43.5C47.25 44.328 46.578 45 45.75 45C44.007 45 43.206 45.768 42.096 46.833C40.857 48.021 39.315 49.5 36.366 49.5Z" fill="#505050"/>
</svg>
