<svg xmlns="http://www.w3.org/2000/svg">
  <symbol id="bg-puddle" viewBox="0 0 1192 1350" fill="none" >
    <path fill-rule="evenodd" clip-rule="evenodd" d="M594.381 78.937C704.37 86.1054 815.093 21.8263 916.702 74.1155C1032.82 133.872 1153.98 233.615 1185.93 383.359C1217.65 531.974 1115.04 666.308 1074.06 811.454C1034.21 952.561 1039.43 1120.52 949.464 1220.87C855.944 1325.18 720.15 1360.03 594.381 1346.5C474.746 1333.62 381.304 1231.61 281.741 1149.02C177.901 1062.88 26.3986 1007.41 3.13592 856.041C-20.3811 703.017 131.508 598.441 174.625 452.014C215.37 313.641 149.265 116.617 246.248 30.4198C343.28 -55.8225 474.832 71.1456 594.381 78.937Z" fill="currentColor"/>
  </symbol>
  <symbol id="bg-puddle-right" viewBox="0 0 1453 1750" fill="none">
    <path fill-rule="evenodd" clip-rule="evenodd" d="M851.646 157.114C973.951 189.2 1113.59 133.457 1216.03 219.335C1333.09 317.478 1446.59 465.929 1448.01 657.09C1449.41 846.81 1302.73 990.54 1223 1160.62C1145.5 1325.96 1112.56 1533.9 987.984 1638.45C858.482 1747.13 697.386 1761.33 558.767 1718.07C426.909 1676.91 345.168 1531.53 252.04 1408.77C154.912 1280.73 -3.01987 1180.39 5.73735 989.062C14.5903 795.645 209.937 698.983 292.364 527.781C370.258 365.997 341.279 109.39 470.499 23.749C599.785 -61.9363 718.711 122.239 851.646 157.114Z" fill="currentColor"/>
  </symbol>

  <symbol id="bg-puddle-left" viewBox="0 0 1230 1380" fill="none">
    <path fill-rule="evenodd" clip-rule="evenodd" d="M556.543 1271.45C448.013 1252.2 330.882 1303.89 235.653 1240.72C126.826 1168.54 17.3975 1056.05 2.13463 903.699C-13.0132 752.495 103.774 630.284 160.499 490.537C215.645 354.679 228.971 187.166 329.442 97.3435C433.886 3.96871 572.692 -15.7035 696.205 11.6052C813.693 37.5819 895.325 149.271 985.182 242.328C1078.9 339.383 1223.37 411.207 1229.81 564.218C1236.32 718.902 1073.84 806.105 1014.85 946.89C959.107 1079.93 1003.1 1283.04 897.211 1358.03C791.267 1433.05 674.506 1292.36 556.543 1271.45Z" fill="currentColor"/>
  </symbol>

  <symbol id="bg-puddle-left-for-laptop" viewBox="0 0 819 934" fill="none">
    <path fill-rule="evenodd" clip-rule="evenodd" d="M445.143 894.715C367.069 896.451 292.886 948.628 217.944 918.019C132.299 883.04 40.6309 820.166 8.83495 716.515C-22.7213 613.646 41.4122 512.555 61.3802 407.644C80.7925 305.652 66.7491 187.5 124.053 111.164C183.622 31.8098 277.316 -1.15486 366.92 0.625004C452.153 2.31805 524.401 68.5052 599.77 120.614C678.376 174.96 788.731 204.731 814.491 310.064C840.533 416.55 739.782 499.693 718.386 605.64C698.167 705.759 756.983 840.651 693.851 907.44C630.687 974.264 530.002 892.829 445.143 894.715Z" fill="currentColor"/>
  </symbol>

  <symbol id="bg-overview-vawe" height="400" viewBox="0 0 3720 400" fill="none">
    <path fill-rule="evenodd" clip-rule="evenodd" d="M431 220L540.458 250C649.917 280 868.833 340 1087.75 364C1306.67 388 1525.58 376 1744.5 346C1963.42 316 2182.33 268 2401.25 226C2620.17 184 2839.08 148 2948.54 130L3058 112L3720 0V400H2948.54C2839.08 400 2620.17 400 2401.25 400C2182.33 400 1963.42 400 1744.5 400C1525.58 400 1306.67 400 1087.75 400C868.833 400 649.917 400 540.458 400H0V72L431 220Z" fill="currentColor"/>
  </symbol>
  <symbol id="bg-overview-vawe-for-tablet" viewBox="0 0 1348 216" fill="none">
    <path fill-rule="evenodd" clip-rule="evenodd" d="M290 137.25L322 150.375C354 163.5 418 189.75 482 200.25C546 210.75 610 205.5 674 192.375C738 179.25 802 158.25 866 139.875C930 121.5 994 105.75 1026 97.875L1058 90L1348 0V216C1316 216 930 216 866 216C802 216 738 216 674 216C610 216 546 216 482 216C418 216 32 216 0 216V0L290 137.25Z" fill="currentColor"/>
  </symbol>

  <symbol id="bg-advantages-vawe" height="400" viewBox="0 0 3720 400" fill="none">
    <path fill-rule="evenodd" clip-rule="evenodd" d="M431 220L540.458 250C649.917 280 868.833 340 1087.75 364C1306.67 388 1525.58 376 1744.5 346C1963.42 316 2182.33 268 2401.25 226C2620.17 184 2839.08 148 2948.54 130L3058 112L3720 0V400H2948.54C2839.08 400 2620.17 400 2401.25 400C2182.33 400 1963.42 400 1744.5 400C1525.58 400 1306.67 400 1087.75 400C868.833 400 649.917 400 540.458 400H0V72L431 220Z" fill="currentColor"/>
  </symbol>
  <symbol id="bg-advantages-vawe-for-tablet" viewBox="0 0 1348 216" fill="none">
    <path fill-rule="evenodd" clip-rule="evenodd" d="M290 137.25L322 150.375C354 163.5 418 189.75 482 200.25C546 210.75 610 205.5 674 192.375C738 179.25 802 158.25 866 139.875C930 121.5 994 105.75 1026 97.875L1058 90L1348 0V216C1316 216 930 216 866 216C802 216 738 216 674 216C610 216 546 216 482 216C418 216 32 216 0 216V0L290 137.25Z" fill="currentColor"/>
  </symbol>

  <symbol id="bg-technology-first-vawe" viewBox="0 0 3720 408" fill="none">
    <path fill-rule="evenodd" clip-rule="evenodd" d="M431 180L540.458 150C649.917 120 868.833 60 1087.75 36C1306.67 12 1525.58 24 1744.5 54C1963.42 84 2182.33 132 2401.25 174C2620.17 216 2839.08 252 2948.54 270L3058 288L3720 408V0H2948.54C2839.08 0 2620.17 0 2401.25 0C2182.33 0 1963.42 0 1744.5 0C1525.58 0 1306.67 0 1087.75 0C868.833 0 649.917 0 540.458 0H0V288L431 180Z" fill="currentColor"/>
  </symbol>

  <symbol id="bg-technology-first-vawe-for-tablet" viewBox="0 0 1348 236" fill="none">
    <path fill-rule="evenodd" clip-rule="evenodd" d="M290 78.75L322 65.625C354 52.5 418 26.25 482 15.75C546 5.25 610 10.5 674 23.625C738 36.75 802 57.75 866 76.125C930 94.5 994 110.25 1026 118.125L1058 126L1348 208V0C1316 0 930 0 866 0C802 0 738 0 674 0C610 0 546 0 482 0C418 0 32 0 0 0V236L290 78.75Z" fill="currentColor"/>
  </symbol>

  <symbol id="bg-technology-second-vawe" viewBox="0 0 3720 362" fill="none">
    <path fill-rule="evenodd" clip-rule="evenodd" d="M3720 175.75L3582.96 206.792C3445.92 237.833 3171.83 299.917 2897.75 324.75C2623.67 349.583 2349.58 337.167 2075.5 306.125C1801.42 275.083 1527.33 225.417 1253.25 181.958C979.167 138.5 705.083 101.25 568.042 82.625L431 64L0 0V362C137.042 362 979.167 362 1253.25 362C1527.33 362 1801.42 362 2075.5 362C2349.58 362 2623.67 362 2897.75 362C3171.83 362 3445.92 362 3582.96 362H3720V175.75Z" fill="currentColor"/>
  </symbol>
  <symbol id="bg-technology-second-vawe-for-tablet" viewBox="0 0 1348 138" fill="none">
    <path fill-rule="evenodd" clip-rule="evenodd" d="M1066 86.75L1033.38 95.2917C1000.75 103.833 935.5 120.917 870.25 127.75C805 134.583 739.75 131.167 674.5 122.625C609.25 114.083 544 100.417 478.75 88.4583C413.5 76.5 348.25 66.25 315.625 61.125L283 56L0 0V138C32.625 138 413.5 138 478.75 138C544 138 609.25 138 674.5 138C739.75 138 805 138 870.25 138C935.5 138 1315.38 138 1348 138V36L1066 86.75Z" fill="currentColor"/>
  </symbol>

  <symbol id="bg-news-vawe" viewBox="0 0 3720 410" fill="none">
    <path fill-rule="evenodd" clip-rule="evenodd" d="M431 223.75L540.458 254.792C649.917 285.833 868.833 347.917 1087.75 372.75C1306.67 397.583 1525.58 385.167 1744.5 354.125C1963.42 323.083 2182.33 273.417 2401.25 229.958C2620.17 186.5 2839.08 149.25 2948.54 130.625L3058 112L3720 0V410C3610.54 410 2620.17 410 2401.25 410C2182.33 410 1963.42 410 1744.5 410C1525.58 410 1306.67 410 1087.75 410C868.833 410 109.458 410 0 410V112L431 223.75Z" fill="currentColor"/>
  </symbol>

  <symbol id="bg-instagram-ellipse" viewBox="0 0 3720 664" fill="none">
    <path d="M3720 664C3720 548.366 2882.63 209.467 2668.37 127.701C2454.11 45.9356 2163.51 8.73015e-06 1860.5 0C1557.49 -8.73015e-06 1266.89 45.9356 1052.63 127.701C838.37 209.467 4.57532e-05 548.366 0 664H1952H3720Z" fill="currentColor"/>
  </symbol>
  <symbol id="bg-instagram-ellipse-for-tablet" viewBox="0 0 1348 248" fill="none">
    <path d="M1348 248C1348 197.609 1181.32 91.2816 1076.86 55.6497C972.401 20.0178 830.726 3.80443e-06 683 0C535.274 -3.80442e-06 393.599 20.0178 289.142 55.6497C184.684 91.2816 2.23059e-05 197.609 0 248H656H1348Z" fill="currentColor"/>
  </symbol>
  <symbol id="bg-instagram-bottom-vawe-for-tablet" viewBox="0 0 1348 190" fill="none">
    <path fill-rule="evenodd" clip-rule="evenodd" d="M92 77.5L132.25 64.5833C172.5 51.6667 253 25.8333 333.5 15.5C414 5.16667 494.5 10.3333 575 23.25C655.5 36.1667 736 56.8333 816.5 74.9167C897 93 977.5 108.5 1017.75 116.25L1058 124L1348 190V0C1307.75 0 897 0 816.5 0C736 0 655.5 0 575 0C494.5 0 414 0 333.5 0C253 0 40.25 0 0 0V114L92 77.5Z" fill="currentColor"/>
  </symbol>

  <symbol id="bg-footer-vawe" viewBox="0 0 3720 408" fill="none">
    <path fill-rule="evenodd" clip-rule="evenodd" d="M0 320L540.458 150C649.917 120 868.833 60 1087.75 36C1306.67 12 1525.58 24 1744.5 54C1963.42 84 2182.33 132 2401.25 174C2620.17 216 2839.08 252 2948.54 270L3720 408V0H2948.54C2839.08 0 2620.17 0 2401.25 0C2182.33 0 1963.42 0 1744.5 0C1525.58 0 1306.67 0 1087.75 0C868.833 0 649.917 0 540.458 0H0V320Z" fill="currentColor"/>
  </symbol>
  <symbol id="bg-footer-vawe-for-tablet"  viewBox="0 0 1348 190" fill="none">
    <path fill-rule="evenodd" clip-rule="evenodd" d="M92 77.5L132.25 64.5833C172.5 51.6667 253 25.8333 333.5 15.5C414 5.16667 494.5 10.3333 575 23.25C655.5 36.1667 736 56.8333 816.5 74.9167C897 93 977.5 108.5 1017.75 116.25L1058 124L1348 190V0C1307.75 0 897 0 816.5 0C736 0 655.5 0 575 0C494.5 0 414 0 333.5 0C253 0 40.25 0 0 0V114L92 77.5Z" fill="currentColor"/>
  </symbol>

  <symbol id="bg-catalog-vawe-for-hero" viewBox="0 0 3720 568" fill="none">
    <path fill-rule="evenodd" clip-rule="evenodd" d="M908 180L987.333 150C1066.67 120 1225.33 60 1384 36C1542.67 12 1701.33 24 1860 54C2018.67 84 2177.33 132 2336 174C2494.67 216 2653.33 252 2732.67 270L2812 288L3720 524V0C3640.67 0 2494.67 0 2336 0C2177.33 0 2018.67 0 1860 0C1701.33 0 1542.67 0 1384 0C1225.33 0 79.3333 0 0 0V568L908 180Z" fill="currentColor"/>
  </symbol>

  <!-- Задняя волна для футера, нужна, чтобы сделать толстую границу-->
  <!-- Выше, чем footer-vawe, на 22px (desktop)-->
  <symbol id="bg-catalog-back-front-for-footer" viewBox="0 0 3720 407" fill="none">
    <path fill-rule="evenodd" clip-rule="evenodd" d="M0 326L556.458 150C665.917 120 884.833 60 1103.75 36C1322.67 12 1541.58 24 1760.5 54C1979.42 84 2198.33 132 2417.25 174C2636.17 216 2855.08 252 2964.54 270L3720 407V0H2964.54C2855.08 0 2636.17 0 2417.25 0C2198.33 0 1979.42 0 1760.5 0C1541.58 0 1322.67 0 1103.75 0C884.833 0 665.917 0 556.458 0H0V326Z" fill="currentColor"/>
  </symbol>

</svg>

