<svg xmlns="http://www.w3.org/2000/svg">
  <symbol id="icon-mail" viewBox="0 0 13 10" fill="none">
    <path d="M12.5 1.625C12.5 1.00625 11.96 0.5 11.3 0.5H1.7C1.04 0.5 0.5 1.00625 0.5 1.625M12.5 1.625V8.375C12.5 8.99375 11.96 9.5 11.3 9.5H1.7C1.04 9.5 0.5 8.99375 0.5 8.375V1.625M12.5 1.625L6.5 5.5625L0.5 1.625" stroke="currentColor" stroke-linecap="round" stroke-linejoin="round"/>
  </symbol>
  <symbol id="icon-phone" viewBox="0 0 13 13" fill="none">
    <path d="M11.9396 10.7872V9.06504C11.9466 8.7835 11.8497 8.50922 11.6673 8.29436C11.4849 8.07949 11.2297 7.93904 10.9503 7.89969C10.3981 7.82701 9.85585 7.6922 9.33399 7.49785C9.12811 7.42062 8.90436 7.4039 8.68926 7.44969C8.47415 7.49547 8.27671 7.60184 8.12032 7.75618L7.38981 8.48524C5.94977 7.66803 4.75744 6.47806 3.93861 5.04087L4.66912 4.31182C4.82377 4.15574 4.93034 3.95868 4.97622 3.744C5.0221 3.52932 5.00535 3.30602 4.92796 3.10055C4.73322 2.57972 4.59815 2.03858 4.52532 1.48744C4.48625 1.21157 4.348 0.959296 4.13634 0.777633C3.92469 0.595969 3.65407 0.497314 3.37492 0.500056H1.64932C1.48961 0.500206 1.33168 0.533543 1.18559 0.597946C1.03949 0.662348 0.908437 0.756404 0.800762 0.874126C0.693087 0.991847 0.611153 1.13065 0.560176 1.28171C0.509198 1.43277 0.490295 1.59276 0.504669 1.75151C0.693474 3.52593 1.29843 5.23101 2.27053 6.72861C3.15366 8.11564 4.33195 9.2916 5.72173 10.173C7.21553 11.1398 8.91572 11.7434 10.6857 11.9353C10.8453 11.9497 11.0061 11.9307 11.1578 11.8795C11.3096 11.8283 11.4489 11.746 11.567 11.6379C11.685 11.5298 11.7791 11.3983 11.8433 11.2518C11.9075 11.1053 11.9403 10.9471 11.9396 10.7872Z" stroke="currentColor" stroke-linecap="round" stroke-linejoin="round"/>
  </symbol>
</svg>
