<svg xmlns="http://www.w3.org/2000/svg">
  <symbol id="sort-close" viewBox="0 0 13 13" fill="none">
    <path d="M0.5 0.5L12.5 12.5" stroke="currentColor" stroke-linecap="round"/>
    <path d="M12.5 0.5L0.5 12.5" stroke="currentColor" stroke-linecap="round"/>
  </symbol>
  <svg id="personal-eye" viewBox="0 0 17 13" fill="none">
    <path d="M0.5 6.5C0.5 6.5 3.40909 0.5 8.5 0.5C13.5909 0.5 16.5 6.5 16.5 6.5C16.5 6.5 13.5909 12.5 8.5 12.5C3.40909 12.5 0.5 6.5 0.5 6.5Z" stroke="currentColor" stroke-linecap="round" stroke-linejoin="round"/>
    <path d="M8.5 8.75C9.70499 8.75 10.6818 7.74264 10.6818 6.5C10.6818 5.25736 9.70499 4.25 8.5 4.25C7.29502 4.25 6.31818 5.25736 6.31818 6.5C6.31818 7.74264 7.29502 8.75 8.5 8.75Z" stroke="currentColor" stroke-linecap="round" stroke-linejoin="round"/>
  </svg>

</svg>
