<svg xmlns="http://www.w3.org/2000/svg">
  <symbol id="icon-news-arrow" viewBox="0 0 14 12" fill="none">
    <path d="M13.5303 6.53033C13.8232 6.23744 13.8232 5.76256 13.5303 5.46967L8.75736 0.696699C8.46447 0.403806 7.98959 0.403806 7.6967 0.696699C7.40381 0.989593 7.40381 1.46447 7.6967 1.75736L11.9393 6L7.6967 10.2426C7.40381 10.5355 7.40381 11.0104 7.6967 11.3033C7.98959 11.5962 8.46447 11.5962 8.75736 11.3033L13.5303 6.53033ZM0 6.75H13V5.25H0V6.75Z" fill="currentColor"/>
  </symbol>
  <symbol id="icon-news-prev" viewBox="0 0 101 16" fill="none">
    <path d="M0.292893 7.29288C-0.0976333 7.6834 -0.0976334 8.31656 0.292892 8.70709L6.65685 15.0711C7.04738 15.4616 7.68054 15.4616 8.07107 15.0711C8.46159 14.6805 8.46159 14.0474 8.07107 13.6568L2.41422 7.99998L8.07107 2.34313C8.46159 1.95261 8.46159 1.31944 8.07107 0.928916C7.68054 0.538391 7.04738 0.538391 6.65685 0.928916L0.292893 7.29288ZM101 7L1 6.99998L1 8.99998L101 9L101 7Z" fill="currentColor"/>
  </symbol>
  <symbol id="icon-news-next" viewBox="0 0 101 16" fill="none">
    <path d="M100.707 7.29288C101.098 7.6834 101.098 8.31656 100.707 8.70709L94.3431 15.0711C93.9526 15.4616 93.3195 15.4616 92.9289 15.0711C92.5384 14.6805 92.5384 14.0474 92.9289 13.6568L98.5858 7.99998L92.9289 2.34313C92.5384 1.95261 92.5384 1.31944 92.9289 0.928916C93.3195 0.538391 93.9526 0.538391 94.3431 0.928916L100.707 7.29288ZM-1.74846e-07 7L100 6.99998L100 8.99998L1.74846e-07 9L-1.74846e-07 7Z" fill="currentColor"/>
  </symbol>

</svg>




