<svg xmlns="http://www.w3.org/2000/svg">
  <symbol id="icon-basket" viewBox="0 0 37 35" fill="none">
    <path d="M2 2H8L12.02 21.7662C12.1572 22.4458 12.5329 23.0563 13.0813 23.4908C13.6298 23.9253 14.316 24.1561 15.02 24.1429H29.6C30.304 24.1561 30.9902 23.9253 31.5387 23.4908C32.0871 23.0563 32.4628 22.4458 32.6 21.7662L35 9.38095H9.5M15.5 31.5238C15.5 32.3391 14.8284 33 14 33C13.1716 33 12.5 32.3391 12.5 31.5238C12.5 30.7085 13.1716 30.0476 14 30.0476C14.8284 30.0476 15.5 30.7085 15.5 31.5238ZM32 31.5238C32 32.3391 31.3284 33 30.5 33C29.6716 33 29 32.3391 29 31.5238C29 30.7085 29.6716 30.0476 30.5 30.0476C31.3284 30.0476 32 30.7085 32 31.5238Z" stroke="currentColor" stroke-width="3" stroke-linecap="round" stroke-linejoin="round"/>
  </symbol>
  <symbol id="icon-user" viewBox="0 0 33 36" fill="none">
    <path d="M31 34V30.4444C31 28.5585 30.2362 26.7497 28.8765 25.4161C27.5169 24.0825 25.6728 23.3333 23.75 23.3333H9.25C7.32718 23.3333 5.48311 24.0825 4.12348 25.4161C2.76384 26.7497 2 28.5585 2 30.4444V34M23.75 9.11111C23.75 13.0385 20.5041 16.2222 16.5 16.2222C12.4959 16.2222 9.25 13.0385 9.25 9.11111C9.25 5.18375 12.4959 2 16.5 2C20.5041 2 23.75 5.18375 23.75 9.11111Z" stroke="currentColor" stroke-width="3" stroke-linecap="round" stroke-linejoin="round"/>
  </symbol>
  <symbol id="icon-search" viewBox="0 0 36 35" fill="none">
    <path d="M34 33L26.2667 25.5083M30.4444 15.7778C30.4444 23.387 24.0769 29.5556 16.2222 29.5556C8.36751 29.5556 2 23.387 2 15.7778C2 8.16852 8.36751 2 16.2222 2C24.0769 2 30.4444 8.16852 30.4444 15.7778Z" stroke="currentColor" stroke-width="3" stroke-linecap="round" stroke-linejoin="round"/>
  </symbol>
  <symbol id="icon-burger" viewBox="0 0 63 34" fill="none" xmlns="http://www.w3.org/2000/svg">
    <path d="M2 2H61" stroke="currentColor" stroke-width="3.072" stroke-linecap="round"/>
    <path d="M2 16.0002H61" stroke="currentColor" stroke-width="3.072" stroke-linecap="round"/>
    <path d="M2 32H61" stroke="currentColor" stroke-width="3.072" stroke-linecap="round"/>
  </symbol>
  <symbol id="icon-close" viewBox="0 0 44 44" fill="none">
    <path d="M2 2.4873L41.524 42.0001" stroke="currentColor" stroke-width="3" stroke-linecap="round"/>
    <path d="M2.47656 41.5127L42.0005 1.99995" stroke="currentColor" stroke-width="3" stroke-linecap="round"/>
  </symbol>

  <symbol id="icon-phone" viewBox="0 0 58 58" fill="none">
    <path d="M55.5188 50.1751V42.1905C55.5513 40.8852 55.1019 39.6135 54.2562 38.6173C53.4104 37.6211 52.2273 36.9699 50.9319 36.7875C48.3715 36.4505 45.8576 35.8255 43.4381 34.9244C42.4835 34.5664 41.4462 34.4888 40.4488 34.7011C39.4515 34.9134 38.5361 35.4066 37.811 36.1221L34.4241 39.5023C27.7476 35.7135 22.2195 30.1963 18.4231 23.533L21.81 20.1528C22.527 19.4292 23.0212 18.5156 23.2339 17.5202C23.4465 16.5249 23.3689 15.4896 23.0101 14.537C22.1072 12.1222 21.481 9.61326 21.1433 7.05799C20.9622 5.77897 20.3212 4.60932 19.3399 3.76706C18.3586 2.9248 17.1039 2.4674 15.8096 2.48012H7.80912C7.06865 2.48081 6.33643 2.63538 5.65909 2.93397C4.98175 3.23256 4.37413 3.66864 3.87491 4.21444C3.37569 4.76024 2.99582 5.4038 2.75947 6.10415C2.52312 6.8045 2.43547 7.54629 2.50211 8.2823C3.37749 16.5091 6.18229 24.4145 10.6893 31.358C14.7838 37.7887 20.2468 43.2409 26.6903 47.3273C33.6161 51.8097 41.4988 54.6083 49.7051 55.4983C50.4448 55.565 51.1903 55.4768 51.8939 55.2393C52.5975 55.0018 53.2436 54.6203 53.7909 54.1192C54.3382 53.6181 54.7746 53.0084 55.0722 52.3293C55.3697 51.6501 55.5218 50.9164 55.5188 50.1751Z" stroke="currentColor" stroke-width="4.096" stroke-linecap="round" stroke-linejoin="round"/>
  </symbol>

  <symbol id="icon-instagram" viewBox="0 0 102 102" fill="none">
    <path d="M60.7617 51C60.7617 56.3914 56.3914 60.7617 51 60.7617C45.6086 60.7617 41.2383 56.3914 41.2383 51C41.2383 45.6086 45.6086 41.2383 51 41.2383C56.3914 41.2383 60.7617 45.6086 60.7617 51Z" fill="currentColor"/>
    <path d="M73.8292 33.7287C73.36 32.4571 72.6113 31.3061 71.6386 30.3614C70.6939 29.3887 69.5437 28.64 68.2713 28.1708C67.2394 27.77 65.6893 27.293 62.8341 27.163C59.7454 27.0222 58.8193 26.9918 51 26.9918C43.1799 26.9918 42.2538 27.0214 39.1659 27.1622C36.3107 27.293 34.7598 27.77 33.7287 28.1708C32.4563 28.64 31.3054 29.3887 30.3614 30.3614C29.3887 31.3061 28.64 32.4563 28.17 33.7287C27.7692 34.7606 27.2922 36.3115 27.1622 39.1667C27.0214 42.2546 26.991 43.1807 26.991 51.0008C26.991 58.8201 27.0214 59.7462 27.1622 62.8348C27.2922 65.69 27.7692 67.2402 28.17 68.2721C28.64 69.5445 29.3879 70.6946 30.3606 71.6394C31.3054 72.6121 32.4555 73.3607 33.7279 73.83C34.7598 74.2316 36.3107 74.7086 39.1659 74.8385C42.2538 74.9794 43.1791 75.009 50.9992 75.009C58.8201 75.009 59.7462 74.9794 62.8333 74.8385C65.6885 74.7086 67.2394 74.2316 68.2713 73.83C70.8254 72.8448 72.844 70.8262 73.8292 68.2721C74.23 67.2402 74.707 65.69 74.8378 62.8348C74.9786 59.7462 75.0082 58.8201 75.0082 51.0008C75.0082 43.1807 74.9786 42.2546 74.8378 39.1667C74.7078 36.3115 74.2308 34.7606 73.8292 33.7287ZM51 66.0379C42.6943 66.0379 35.9613 59.3057 35.9613 51C35.9613 42.6943 42.6943 35.9621 51 35.9621C59.3049 35.9621 66.0379 42.6943 66.0379 51C66.0379 59.3057 59.3049 66.0379 51 66.0379ZM66.6324 38.8819C64.6916 38.8819 63.1181 37.3084 63.1181 35.3676C63.1181 33.4267 64.6916 31.8532 66.6324 31.8532C68.5733 31.8532 70.1468 33.4267 70.1468 35.3676C70.146 37.3084 68.5733 38.8819 66.6324 38.8819Z" fill="currentColor"/>
    <path d="M51 0C22.8378 0 0 22.8378 0 51C0 79.1622 22.8378 102 51 102C79.1622 102 102 79.1622 102 51C102 22.8378 79.1622 0 51 0ZM80.1085 63.0737C79.9669 66.1912 79.4712 68.3196 78.7474 70.1826C77.2261 74.1164 74.1164 77.2261 70.1826 78.7474C68.3204 79.4712 66.1912 79.9661 63.0745 80.1085C59.9516 80.2509 58.954 80.2852 51.0008 80.2852C43.0468 80.2852 42.0499 80.2509 38.9263 80.1085C35.8096 79.9661 33.6804 79.4712 31.8182 78.7474C29.8634 78.012 28.0937 76.8595 26.6307 75.3693C25.1413 73.907 23.9887 72.1366 23.2533 70.1826C22.5296 68.3204 22.0339 66.1912 21.8923 63.0745C21.7483 59.9508 21.7148 58.9532 21.7148 51C21.7148 43.0468 21.7483 42.0492 21.8915 38.9263C22.0331 35.8088 22.5281 33.6804 23.2518 31.8174C23.9872 29.8634 25.1405 28.093 26.6307 26.6307C28.093 25.1405 29.8634 23.988 31.8174 23.2526C33.6804 22.5288 35.8088 22.0339 38.9263 21.8915C42.0492 21.7491 43.0468 21.7148 51 21.7148C58.9532 21.7148 59.9508 21.7491 63.0737 21.8923C66.1912 22.0339 68.3196 22.5288 70.1826 23.2518C72.1366 23.9872 73.907 25.1405 75.3701 26.6307C76.8595 28.0937 78.0128 29.8634 78.7474 31.8174C79.4719 33.6804 79.9669 35.8088 80.1093 38.9263C80.2517 42.0492 80.2852 43.0468 80.2852 51C80.2852 58.9532 80.2517 59.9508 80.1085 63.0737Z" fill="currentColor"/>
  </symbol>
</svg>





