<svg xmlns="http://www.w3.org/2000/svg">
  <symbol id="icon-cup" viewBox="0 0 35 34" fill="none">
    <path d="M25.619 12.5H27.0952C28.6613 12.5 30.1632 13.1321 31.2705 14.2574C32.3779 15.3826 33 16.9087 33 18.5C33 20.0913 32.3779 21.6174 31.2705 22.7426C30.1632 23.8679 28.6613 24.5 27.0952 24.5H25.619M25.619 12.5H2V26C2 27.5913 2.62211 29.1174 3.72946 30.2426C4.83682 31.3679 6.33872 32 7.90476 32H19.7143C21.2803 32 22.7822 31.3679 23.8896 30.2426C24.9969 29.1174 25.619 27.5913 25.619 26V12.5ZM7.90476 2V6.5M13.8095 2V6.5M19.7143 2V6.5" stroke="currentColor" stroke-width="3" stroke-linecap="round" stroke-linejoin="round"/>
  </symbol>
  <symbol id="icon-mark" viewBox="0 0 35 35" fill="none">
    <path d="M10.0849 10.087H10.1011M32.0596 20.4545L20.4659 32.0513C20.1655 32.352 19.8089 32.5906 19.4163 32.7534C19.0237 32.9162 18.6028 33 18.1778 33C17.7529 33 17.332 32.9162 16.9394 32.7534C16.5468 32.5906 16.1902 32.352 15.8898 32.0513L2 18.174V2H18.1698L32.0596 15.8935C32.6619 16.4995 33 17.3194 33 18.174C33 19.0286 32.6619 19.8484 32.0596 20.4545Z" stroke="currentColor" stroke-width="3" stroke-linecap="round" stroke-linejoin="round"/>
  </symbol>
  <symbol id="icon-consult" viewBox="0 0 40 34" fill="none">
    <path d="M26.5455 32V28.6667C26.5455 26.8986 25.8558 25.2029 24.6283 23.9526C23.4008 22.7024 21.736 22 20 22H8.54545C6.80949 22 5.14463 22.7024 3.91712 23.9526C2.68961 25.2029 2 26.8986 2 28.6667V32M28.1818 15.3333L31.4545 18.6667L38 12M20.8182 8.66667C20.8182 12.3486 17.8877 15.3333 14.2727 15.3333C10.6578 15.3333 7.72727 12.3486 7.72727 8.66667C7.72727 4.98477 10.6578 2 14.2727 2C17.8877 2 20.8182 4.98477 20.8182 8.66667Z" stroke="currentColor" stroke-width="3" stroke-linecap="round" stroke-linejoin="round"/>
  </symbol>
</svg>




