<svg width="40" height="34" viewBox="0 0 40 34" fill="none" xmlns="http://www.w3.org/2000/svg">
<path d="M26.5455 32V28.6667C26.5455 26.8986 25.8558 25.2029 24.6283 23.9526C23.4008 22.7024 21.736 22 20 22H8.54545C6.80949 22 5.14463 22.7024 3.91712 23.9526C2.68961 25.2029 2 26.8986 2 28.6667V32M28.1818 15.3333L31.4545 18.6667L38 12M20.8182 8.66667C20.8182 12.3486 17.8877 15.3333 14.2727 15.3333C10.6578 15.3333 7.72727 12.3486 7.72727 8.66667C7.72727 4.98477 10.6578 2 14.2727 2C17.8877 2 20.8182 4.98477 20.8182 8.66667Z" stroke="white" stroke-width="3" stroke-linecap="round" stroke-linejoin="round"/>
</svg>
