<svg width="58" height="58" viewBox="0 0 58 58" fill="none" xmlns="http://www.w3.org/2000/svg">
<path d="M55.5188 50.1751V42.1905C55.5513 40.8852 55.1019 39.6135 54.2562 38.6173C53.4104 37.6211 52.2273 36.9699 50.9319 36.7875C48.3715 36.4505 45.8576 35.8255 43.4381 34.9244C42.4835 34.5664 41.4462 34.4888 40.4488 34.7011C39.4515 34.9134 38.5361 35.4066 37.811 36.1221L34.4241 39.5023C27.7476 35.7135 22.2195 30.1963 18.4231 23.533L21.81 20.1528C22.527 19.4292 23.0212 18.5156 23.2339 17.5202C23.4465 16.5249 23.3689 15.4896 23.0101 14.537C22.1072 12.1222 21.481 9.61326 21.1433 7.05799C20.9622 5.77897 20.3212 4.60932 19.3399 3.76706C18.3586 2.9248 17.1039 2.4674 15.8096 2.48012H7.80912C7.06865 2.48081 6.33643 2.63538 5.65909 2.93397C4.98175 3.23256 4.37413 3.66864 3.87491 4.21444C3.37569 4.76024 2.99582 5.4038 2.75947 6.10415C2.52312 6.8045 2.43547 7.54629 2.50211 8.2823C3.37749 16.5091 6.18229 24.4145 10.6893 31.358C14.7838 37.7887 20.2468 43.2409 26.6903 47.3273C33.6161 51.8097 41.4988 54.6083 49.7051 55.4983C50.4448 55.565 51.1903 55.4768 51.8939 55.2393C52.5975 55.0018 53.2436 54.6203 53.7909 54.1192C54.3382 53.6181 54.7746 53.0084 55.0722 52.3293C55.3697 51.6501 55.5218 50.9164 55.5188 50.1751Z" stroke="white" stroke-width="4.096" stroke-linecap="round" stroke-linejoin="round"/>
</svg>
