<svg width="35" height="34" viewBox="0 0 35 34" fill="none" xmlns="http://www.w3.org/2000/svg">
<path d="M25.619 12.5H27.0952C28.6613 12.5 30.1632 13.1321 31.2705 14.2574C32.3779 15.3826 33 16.9087 33 18.5C33 20.0913 32.3779 21.6174 31.2705 22.7426C30.1632 23.8679 28.6613 24.5 27.0952 24.5H25.619M25.619 12.5H2V26C2 27.5913 2.62211 29.1174 3.72946 30.2426C4.83682 31.3679 6.33872 32 7.90476 32H19.7143C21.2803 32 22.7822 31.3679 23.8896 30.2426C24.9969 29.1174 25.619 27.5913 25.619 26V12.5ZM7.90476 2V6.5M13.8095 2V6.5M19.7143 2V6.5" stroke="white" stroke-width="3" stroke-linecap="round" stroke-linejoin="round"/>
</svg>
